<?xml version="1.0" encoding="UTF-8" standalone="no"?>
<svg
   width="1024"
   height="1024"
   viewBox="0 0 270.933 270.933"
   version="1.1"
   id="svg3"
   xml:space="preserve"
   xmlns="http://www.w3.org/2000/svg"
   xmlns:svg="http://www.w3.org/2000/svg"><defs
     id="defs3" /><g
     id="g3"
     transform="translate(0,-0.00257001)"><path
       d="M 191.49558,11.946543 78.917551,12.283488 8.9865028,100.5984 34.35443,210.39725 135.92745,258.99164 237.20537,209.78695 261.93667,99.84031 Z"
       id="path4"
       style="fill:#911ba2;fill-opacity:1" /><g
       aria-label="podman"
       style="font-style:normal;font-weight:400;font-size:37.592px;line-height:22.5552px;font-family:sans-serif;letter-spacing:0;word-spacing:0;fill:#892ca0;fill-opacity:1;stroke:none;stroke-width:0.264583px;stroke-linecap:butt;stroke-linejoin:miter;stroke-opacity:1"
       id="g2"><path
         d="m 1249.878,-209.933 c -3.12,0 -5.526,1.278 -6.992,3.609 v -3.459 h -4.323 v 27.292 h 4.323 v -10.751 c 1.466,2.33 3.872,3.609 7.067,3.609 5.714,0 9.473,-4.098 9.473,-10.075 0,-6.09 -3.872,-10.225 -9.548,-10.225 m -0.902,16.616 c -3.572,0 -6.09,-2.67 -6.09,-6.541 0,-3.76 2.518,-6.466 6.09,-6.466 3.57,0 6.09,2.744 6.09,6.466 0,3.834 -2.52,6.54 -6.09,6.54"
         style="font-style:normal;font-variant:normal;font-weight:400;font-stretch:normal;font-family:Montserrat;-inkscape-font-specification:Montserrat;fill:#491756;fill-opacity:1;stroke-width:0.264583px"
         transform="matrix(3.85912,0,0,3.85912,-4731.643,902.178)"
         id="path1" /><path
         d="m 1278.344,-217.677 v 11.353 c -1.466,-2.33 -3.872,-3.646 -7.105,-3.646 -5.639,0 -9.511,4.097 -9.511,10.112 0,6.09 3.834,10.262 9.586,10.262 3.195,0 5.601,-1.278 7.03,-3.608 v 3.42 h 4.323 v -27.893 z m -6.128,24.473 c -3.646,0 -6.127,-2.707 -6.165,-6.504 0.038,-3.834 2.556,-6.578 6.165,-6.578 3.609,0 6.128,2.706 6.128,6.578 0,3.797 -2.519,6.504 -6.128,6.504"
         style="font-style:normal;font-variant:normal;font-weight:400;font-stretch:normal;font-size:37.592px;line-height:22.5552px;font-family:Montserrat;-inkscape-font-specification:Montserrat;letter-spacing:0;word-spacing:0;fill:#c5c5c5;fill-opacity:1;stroke:none;stroke-width:0.264583px;stroke-linecap:butt;stroke-linejoin:miter;stroke-opacity:1"
         transform="matrix(3.85912,0,0,3.85912,-4731.643,902.178)"
         id="path2" /></g><path
       id="path3"
       style="opacity:1;fill:none;fill-opacity:1;stroke:#491756;stroke-width:1.05833;stroke-linecap:round;stroke-linejoin:round;stroke-miterlimit:4;stroke-dasharray:none;stroke-opacity:1"
       d="m 972.53004,-23.653972 -21.39002,0.06402 -13.28702,16.7799866 4.81995,20.8619704 19.29905,9.233019 19.24298,-9.348976 4.69899,-20.8900523 z"
       transform="matrix(5.26311,0,0,5.26311,-4927.037,136.44)" /></g></svg>
