<?xml version="1.0" encoding="UTF-8" standalone="no"?>
<svg
   id="svg8"
   version="1.1"
   viewBox="0 0 49.119532 47.997471"
   height="181.40776"
   width="185.64862"
   sodipodi:docname="podman.svg"
   inkscape:version="1.1.1 (3bf5ae0d25, 2021-09-20, custom)"
   xmlns:inkscape="http://www.inkscape.org/namespaces/inkscape"
   xmlns:sodipodi="http://sodipodi.sourceforge.net/DTD/sodipodi-0.dtd"
   xmlns="http://www.w3.org/2000/svg"
   xmlns:svg="http://www.w3.org/2000/svg"
   xmlns:rdf="http://www.w3.org/1999/02/22-rdf-syntax-ns#"
   xmlns:cc="http://creativecommons.org/ns#"
   xmlns:dc="http://purl.org/dc/elements/1.1/">
  <sodipodi:namedview
     id="namedview107"
     pagecolor="#ffffff"
     bordercolor="#666666"
     borderopacity="1.0"
     inkscape:pageshadow="2"
     inkscape:pageopacity="0.0"
     inkscape:pagecheckerboard="0"
     showgrid="false"
     fit-margin-top="0"
     fit-margin-left="0"
     fit-margin-right="0"
     fit-margin-bottom="0"
     inkscape:zoom="1.4060326"
     inkscape:cx="181.71698"
     inkscape:cy="86.057746"
     inkscape:window-width="1920"
     inkscape:window-height="1007"
     inkscape:window-x="0"
     inkscape:window-y="0"
     inkscape:window-maximized="1"
     inkscape:current-layer="layer1" />
  <defs
     id="defs2">
    <marker
       style="overflow:visible"
       id="marker5584"
       refX="0"
       refY="0"
       orient="auto">
      <path
         transform="scale(0.2)"
         style="fill:#4d4d4d;fill-opacity:1;fill-rule:evenodd;stroke:#4d4d4d;stroke-width:1pt;stroke-opacity:1"
         d="M 0,-7.0710768 -7.0710894,0 0,7.0710589 7.0710462,0 Z"
         id="path5582" />
    </marker>
    <marker
       style="overflow:visible"
       id="DiamondS"
       refX="0"
       refY="0"
       orient="auto">
      <path
         transform="scale(0.2)"
         style="fill:#4d4d4d;fill-opacity:1;fill-rule:evenodd;stroke:#4d4d4d;stroke-width:1pt;stroke-opacity:1"
         d="M 0,-7.0710768 -7.0710894,0 0,7.0710589 7.0710462,0 Z"
         id="path5359" />
    </marker>
    <marker
       style="overflow:visible"
       id="DotL"
       refX="0"
       refY="0"
       orient="auto">
      <path
         transform="matrix(0.8,0,0,0.8,5.92,0.8)"
         style="fill:#4d4d4d;fill-opacity:1;fill-rule:evenodd;stroke:#4d4d4d;stroke-width:1pt;stroke-opacity:1"
         d="m -2.5,-1 c 0,2.76 -2.24,5 -5,5 -2.76,0 -5,-2.24 -5,-5 0,-2.76 2.24,-5 5,-5 2.76,0 5,2.24 5,5 z"
         id="path5335" />
    </marker>
    <clipPath
       id="clipPath81511"
       clipPathUnits="userSpaceOnUse">
      <rect
         y="-1.4835175"
         x="934.65692"
         height="12.832292"
         width="26.19375"
         id="rect81513"
         style="opacity:1;fill:#e7e8e9;fill-opacity:1;stroke:#a7a9ac;stroke-width:0.529167;stroke-linecap:square;stroke-linejoin:miter;stroke-miterlimit:4;stroke-dasharray:none;stroke-dashoffset:6;stroke-opacity:1" />
    </clipPath>
  </defs>
  <metadata
     id="metadata5">
    <rdf:RDF>
      <cc:Work
         rdf:about="">
        <dc:format>image/svg+xml</dc:format>
        <dc:type
           rdf:resource="http://purl.org/dc/dcmitype/StillImage" />
      </cc:Work>
    </rdf:RDF>
  </metadata>
  <g
     transform="translate(-1175.737,509.6827)"
     id="layer1">
    <g
       id="g163426" />
    <g
       id="g10819"
       transform="matrix(0.73323943,0,0,0.73323943,275.53781,-340.00759)">
      <g
         id="text10671"
         style="font-style:normal;font-weight:normal;font-size:37.592px;line-height:22.5552px;font-family:sans-serif;letter-spacing:0px;word-spacing:0px;fill:#892ca0;fill-opacity:1;stroke:none;stroke-width:0.264583px;stroke-linecap:butt;stroke-linejoin:miter;stroke-opacity:1"
         aria-label="podman">
        <path
           id="path80700"
           style="font-style:normal;font-variant:normal;font-weight:normal;font-stretch:normal;font-family:Montserrat;-inkscape-font-specification:Montserrat;fill:#892ca0;fill-opacity:1;stroke-width:0.264583px"
           d="m 1249.8778,-209.9329 c -3.1202,0 -5.526,1.27812 -6.9921,3.60883 v -3.45846 h -4.3231 v 27.29175 h 4.3231 v -10.75129 c 1.4661,2.3307 3.8719,3.60882 7.0673,3.60882 5.7139,0 9.4731,-4.09752 9.4731,-10.07464 0,-6.0899 -3.8719,-10.22501 -9.5483,-10.22501 z m -0.9022,16.61564 c -3.5713,0 -6.0899,-2.66903 -6.0899,-6.541 0,-3.75919 2.5186,-6.46581 6.0899,-6.46581 3.5712,0 6.0899,2.74421 6.0899,6.46581 0,3.83438 -2.5187,6.541 -6.0899,6.541 z" />
        <path
           id="path80704"
           style="font-style:normal;font-variant:normal;font-weight:normal;font-stretch:normal;font-size:37.592px;line-height:22.5552px;font-family:Montserrat;-inkscape-font-specification:Montserrat;letter-spacing:0px;word-spacing:0px;fill:#999999;fill-opacity:1;stroke:none;stroke-width:0.264583px;stroke-linecap:butt;stroke-linejoin:miter;stroke-opacity:1"
           d="m 1278.3436,-217.67684 v 11.35277 c -1.466,-2.33071 -3.8719,-3.64642 -7.1048,-3.64642 -5.6388,0 -9.5108,4.09752 -9.5108,10.11223 0,6.0899 3.8344,10.2626 9.5859,10.2626 3.1954,0 5.6012,-1.27812 7.0297,-3.60882 v 3.42086 h 4.3231 v -27.89322 z m -6.1275,24.47236 c -3.6464,0 -6.1274,-2.70662 -6.165,-6.50341 0.038,-3.83438 2.5562,-6.57859 6.165,-6.57859 3.6089,0 6.1275,2.70662 6.1275,6.57859 0,3.79679 -2.5186,6.50341 -6.1275,6.50341 z" />
      </g>
    </g>
    <g
       id="g10987"
       transform="translate(-4.0076941e-7,-285.75012)">
      <g
         id="g10985"
         transform="translate(238.41304,-199.74894)">
        <path
           style="opacity:1;fill:none;fill-opacity:1;stroke:#892ca0;stroke-width:1.05833;stroke-linecap:round;stroke-linejoin:round;stroke-miterlimit:4;stroke-dasharray:none;stroke-opacity:1"
           d="m 961.97165,23.28467 -19.29817,-9.23285 -4.82036,-20.8616002 13.2871,-16.7806158 21.38926,-0.06408 13.38485,16.7011458 -4.69887,20.8897002 z"
           id="path10931" />
      </g>
    </g>
  </g>
</svg>
