<svg xmlns="http://www.w3.org/2000/svg" width="1024" height="1024" viewBox="0 0 270.933 270.933">
  <g aria-label="podman"
    style="font-style:normal;font-weight:400;font-size:37.592px;line-height:22.5552px;font-family:sans-serif;letter-spacing:0;word-spacing:0;fill:#892ca0;fill-opacity:1;stroke:none;stroke-width:.264583px;stroke-linecap:butt;stroke-linejoin:miter;stroke-opacity:1">
    <path
      d="M1249.878-209.933c-3.12 0-5.526 1.278-6.992 3.609v-3.459h-4.323v27.292h4.323v-10.751c1.466 2.33 3.872 3.609 7.067 3.609 5.714 0 9.473-4.098 9.473-10.075 0-6.09-3.872-10.225-9.548-10.225m-.902 16.616c-3.572 0-6.09-2.67-6.09-6.541 0-3.76 2.518-6.466 6.09-6.466 3.57 0 6.09 2.744 6.09 6.466 0 3.834-2.52 6.54-6.09 6.54"
      style="font-style:normal;font-variant:normal;font-weight:400;font-stretch:normal;font-family:Montserrat;-inkscape-font-specification:Montserrat;fill:#892ca0;fill-opacity:1;stroke-width:.264583px"
      transform="matrix(3.85912 0 0 3.85912 -4731.643 902.178)" />
    <path
      d="M1278.344-217.677v11.353c-1.466-2.33-3.872-3.646-7.105-3.646-5.639 0-9.511 4.097-9.511 10.112 0 6.09 3.834 10.262 9.586 10.262 3.195 0 5.601-1.278 7.03-3.608v3.42h4.323v-27.893zm-6.128 24.473c-3.646 0-6.127-2.707-6.165-6.504.038-3.834 2.556-6.578 6.165-6.578s6.128 2.706 6.128 6.578c0 3.797-2.519 6.504-6.128 6.504"
      style="font-style:normal;font-variant:normal;font-weight:400;font-stretch:normal;font-size:37.592px;line-height:22.5552px;font-family:Montserrat;-inkscape-font-specification:Montserrat;letter-spacing:0;word-spacing:0;fill:#999;fill-opacity:1;stroke:none;stroke-width:.264583px;stroke-linecap:butt;stroke-linejoin:miter;stroke-opacity:1"
      transform="matrix(3.85912 0 0 3.85912 -4731.643 902.178)" />
  </g>
  <path
    d="m961.972 23.285-19.299-9.233-4.82-20.862 13.287-16.78 21.39-.064 13.384 16.7-4.699 20.89z"
    style="opacity:1;fill:none;fill-opacity:1;stroke:#892ca0;stroke-width:1.05833;stroke-linecap:round;stroke-linejoin:round;stroke-miterlimit:4;stroke-dasharray:none;stroke-opacity:1"
    transform="matrix(5.26311 0 0 5.26311 -4927.037 136.44)" />
</svg>
