<?xml version="1.0" standalone="no"?>
<!DOCTYPE svg PUBLIC "-//W3C//DTD SVG 20010904//EN"
 "http://www.w3.org/TR/2001/REC-SVG-20010904/DTD/svg10.dtd">
<svg version="1.0" xmlns="http://www.w3.org/2000/svg"
 width="744.000000pt" height="744.000000pt" viewBox="0 0 744.000000 744.000000"
 preserveAspectRatio="xMidYMid meet">
<metadata>
Created by potrace 1.14, written by Peter Selinger 2001-2017
</metadata>
<g transform="translate(0.000000,744.000000) scale(0.100000,-0.100000)"
fill="#000000" stroke="none">
<path d="M2150 7339 c-47 -3 -92 -8 -100 -12 -8 -5 -53 -57 -100 -117 -47 -61
-88 -110 -92 -110 -5 0 -8 -4 -8 -10 0 -5 -9 -20 -19 -32 -16 -19 -137 -172
-296 -373 -16 -21 -34 -43 -40 -49 -5 -6 -23 -29 -39 -51 -17 -22 -32 -42 -36
-45 -3 -3 -18 -23 -35 -45 -16 -22 -35 -46 -42 -53 -7 -7 -34 -41 -60 -75 -26
-34 -50 -64 -53 -67 -5 -4 -52 -64 -82 -105 -4 -5 -35 -44 -68 -85 -33 -41
-64 -80 -68 -85 -4 -6 -22 -28 -40 -50 -18 -22 -36 -44 -40 -50 -7 -10 -308
-390 -324 -410 -15 -18 -259 -326 -383 -485 -66 -84 -132 -166 -147 -184 -15
-17 -28 -34 -28 -37 0 -3 -12 -19 -26 -34 -31 -34 -30 -48 17 -245 25 -103 29
-119 34 -145 2 -11 15 -69 30 -130 14 -60 28 -119 30 -130 5 -25 16 -74 60
-260 19 -82 37 -162 40 -178 2 -15 6 -31 9 -36 3 -4 8 -23 11 -42 3 -19 17
-79 30 -134 23 -97 84 -365 90 -395 2 -8 4 -15 5 -15 2 0 9 -31 15 -65 5 -32
7 -39 43 -190 38 -160 53 -224 55 -241 2 -8 6 -20 10 -26 5 -7 6 -13 4 -13 -3
0 -1 -17 4 -37 5 -21 12 -49 15 -63 8 -38 45 -195 59 -250 0 -3 5 -23 10 -45
4 -22 9 -44 11 -50 6 -24 66 -282 70 -302 2 -12 8 -33 14 -47 5 -13 7 -26 4
-29 -2 -2 0 -15 5 -29 5 -14 11 -38 14 -54 12 -73 28 -111 56 -132 17 -12 32
-22 35 -22 3 0 67 -30 143 -66 76 -37 179 -86 228 -109 50 -23 137 -66 195
-94 57 -28 110 -51 117 -51 7 0 13 -4 13 -10 0 -5 5 -10 10 -10 6 0 59 -23
118 -52 59 -28 109 -52 112 -53 3 -1 59 -27 125 -59 122 -59 288 -139 470
-226 55 -26 152 -72 215 -102 63 -31 158 -76 210 -101 52 -24 167 -80 255
-122 88 -42 198 -95 245 -117 47 -22 153 -73 235 -113 208 -99 221 -105 241
-105 10 0 82 32 161 70 79 39 165 80 191 92 26 12 50 26 53 31 3 5 9 8 13 7 4
-1 50 20 104 46 53 26 176 85 272 132 96 46 254 122 350 169 96 47 261 127
365 178 105 51 258 125 340 165 83 40 250 122 373 181 123 60 227 109 233 109
5 0 9 5 9 10 0 6 3 9 8 8 4 -1 50 19 102 44 281 134 392 192 404 211 8 12 19
47 25 77 18 88 21 103 41 180 6 25 13 56 15 70 2 14 16 77 30 140 15 63 28
122 30 130 2 8 9 38 15 65 6 28 14 61 16 75 3 14 16 70 28 125 29 121 44 192
50 225 2 14 7 32 10 40 3 8 8 27 11 43 9 49 16 78 31 146 9 36 18 77 20 91 3
14 10 43 16 65 5 22 12 49 14 60 2 11 6 30 9 42 3 13 7 31 9 40 26 114 67 303
71 321 2 13 7 32 10 42 3 10 8 27 10 37 2 10 9 41 15 68 6 28 13 57 15 65 36
171 49 227 56 236 5 6 6 13 3 16 -3 4 -1 23 5 45 9 35 34 143 47 203 13 62 21
99 44 195 7 28 14 59 15 70 2 11 4 20 5 20 2 0 6 19 15 65 3 19 11 53 16 75
14 51 18 71 25 120 6 41 4 44 -69 135 -35 43 -93 116 -100 125 -14 19 -48 60
-73 87 -13 15 -24 32 -24 37 0 5 -4 11 -8 13 -4 2 -44 48 -88 103 -43 55 -83
105 -89 111 -12 14 -32 39 -175 219 -61 77 -119 149 -128 160 -9 11 -44 54
-77 95 -32 41 -64 80 -70 87 -13 15 -14 18 -109 137 -92 115 -107 134 -123
151 -7 8 -13 16 -13 19 0 3 -8 14 -17 24 -10 10 -31 35 -48 56 -28 37 -117
147 -153 191 -10 11 -29 37 -44 57 -15 20 -33 42 -40 50 -8 7 -29 33 -48 58
-46 59 -53 68 -65 83 -6 7 -38 46 -70 87 -69 86 -84 105 -105 130 -8 10 -28
35 -45 56 -16 21 -81 101 -142 177 -62 77 -113 142 -113 146 0 31 -51 32
-1612 29 -854 -2 -1591 -5 -1638 -9z m3385 -450 c132 -165 248 -309 258 -319
9 -11 17 -23 17 -29 0 -5 4 -11 8 -13 4 -1 46 -50 92 -108 46 -58 87 -107 90
-110 3 -3 21 -25 40 -50 19 -25 38 -46 42 -48 4 -2 8 -10 8 -17 0 -7 4 -15 9
-17 5 -1 39 -41 76 -88 36 -47 85 -107 108 -134 23 -27 49 -59 57 -70 8 -12
19 -26 25 -32 5 -7 19 -24 30 -40 11 -15 25 -32 30 -38 6 -6 29 -33 51 -61 21
-27 47 -59 56 -70 9 -11 40 -49 68 -85 28 -36 58 -74 68 -85 10 -11 33 -40 52
-65 19 -25 37 -47 40 -50 3 -3 21 -25 40 -50 19 -25 43 -54 52 -65 9 -11 44
-54 76 -95 33 -41 102 -127 154 -191 51 -64 105 -132 120 -150 14 -19 36 -45
47 -58 12 -13 21 -29 21 -35 -1 -17 -14 -75 -81 -366 -17 -74 -33 -146 -35
-160 -3 -14 -9 -41 -14 -60 -5 -19 -11 -46 -14 -60 -3 -14 -7 -36 -11 -50 -3
-14 -7 -34 -9 -45 -3 -11 -11 -49 -20 -85 -8 -36 -17 -76 -20 -90 -9 -43 -15
-71 -20 -88 -3 -9 -7 -29 -10 -45 -3 -15 -7 -35 -10 -45 -3 -9 -7 -28 -10 -42
-2 -14 -13 -65 -25 -115 -26 -112 -81 -353 -86 -380 -3 -11 -7 -31 -10 -45 -3
-14 -7 -34 -9 -45 -2 -11 -16 -72 -31 -135 -37 -157 -35 -152 -41 -180 -2 -14
-13 -61 -24 -105 -10 -44 -21 -91 -24 -105 -7 -42 -45 -205 -50 -221 -3 -8 -7
-27 -10 -44 -2 -16 -18 -91 -36 -165 -17 -74 -33 -146 -36 -160 -5 -24 -21
-94 -30 -133 -2 -9 -6 -27 -9 -40 -2 -12 -7 -34 -11 -49 -4 -21 -18 -33 -62
-54 -31 -14 -132 -64 -224 -109 -93 -46 -168 -80 -168 -77 0 4 -4 2 -8 -3 -4
-6 -32 -21 -62 -35 -30 -14 -56 -28 -58 -32 -2 -5 -8 -8 -13 -8 -11 0 -131
-57 -489 -233 -124 -61 -227 -111 -230 -112 -3 0 -62 -29 -132 -63 -69 -34
-130 -62 -135 -62 -5 0 -15 -6 -21 -13 -7 -6 -16 -12 -20 -13 -7 0 -67 -30
-517 -250 -99 -48 -182 -88 -185 -89 -3 -1 -86 -41 -185 -89 -99 -48 -217
-106 -262 -127 l-82 -39 -124 60 c-68 33 -129 60 -135 60 -7 0 -12 5 -12 10 0
6 -5 10 -10 10 -6 0 -63 26 -128 57 -64 31 -119 57 -122 58 -3 1 -48 22 -100
47 -246 119 -378 181 -412 195 -21 8 -38 19 -38 24 0 5 -3 8 -7 7 -11 -2 -34
8 -213 95 -85 41 -194 93 -242 115 -47 23 -175 85 -283 137 -108 52 -198 95
-200 95 -2 0 -81 38 -177 84 -362 175 -597 286 -607 286 -31 0 -77 141 -115
350 -2 8 -6 22 -9 30 -4 13 -40 168 -51 225 -2 11 -20 88 -39 170 -20 83 -38
161 -41 175 -2 14 -19 84 -36 155 -32 137 -47 201 -56 250 -8 41 -10 48 -17
65 -5 15 -50 206 -52 225 -1 6 -4 21 -7 35 -9 33 -47 199 -53 228 -3 12 -7 31
-10 42 -19 76 -56 236 -60 260 -2 14 -16 74 -30 134 -15 60 -28 116 -30 125
-2 9 -13 57 -25 106 -12 50 -24 101 -26 115 -4 21 -30 135 -86 371 -10 44 -9
48 18 85 16 22 31 41 34 44 4 4 98 121 207 260 6 8 28 35 48 60 47 59 55 68
90 115 16 22 34 45 40 50 6 6 29 34 50 63 22 28 43 52 47 52 4 0 8 5 8 11 0 6
6 16 12 23 7 7 24 28 38 46 14 18 48 61 75 95 28 34 95 119 150 190 55 70 105
133 110 139 6 6 44 54 85 106 40 52 76 97 79 100 4 3 19 23 36 45 16 22 32 42
35 45 3 3 21 25 40 50 19 25 39 50 45 56 5 7 20 25 32 40 100 129 189 240 196
242 4 2 7 8 7 14 0 6 8 18 18 27 10 9 29 32 42 51 13 19 32 42 42 51 10 9 18
21 18 27 0 6 4 12 8 14 5 2 33 35 62 73 30 39 57 72 60 75 3 3 21 25 40 50 39
50 36 46 120 150 l60 75 228 5 c125 3 837 6 1582 7 l1355 2 240 -300z"/>
<path d="M5632 5820 c-4 -3 -8 -283 -7 -623 0 -339 -3 -617 -6 -617 -3 0 -20
20 -37 44 -94 130 -252 245 -402 291 -30 9 -62 19 -70 22 -8 3 -24 7 -35 9
-11 1 -42 6 -70 11 -91 14 -314 9 -405 -11 -136 -28 -367 -130 -393 -173 -4
-7 -12 -13 -18 -13 -23 0 -131 -111 -202 -208 -87 -119 -162 -303 -186 -457
-20 -132 -22 -150 -22 -240 1 -292 70 -529 215 -735 68 -97 246 -260 284 -260
7 0 12 -4 12 -8 0 -21 242 -112 340 -128 94 -15 269 -20 358 -9 240 27 457
147 592 328 23 31 43 57 44 57 0 0 1 -83 1 -185 0 -142 3 -185 12 -186 7 0 83
0 168 0 85 0 188 0 228 0 l72 1 0 1545 c0 850 -2 1546 -5 1546 -18 5 -462 4
-468 -1z m-502 -1284 c199 -53 358 -196 438 -396 12 -30 24 -65 27 -78 2 -13
7 -31 9 -40 9 -27 17 -102 20 -167 5 -144 -37 -318 -105 -431 -49 -82 -193
-224 -226 -224 -5 0 -15 -6 -21 -12 -7 -7 -16 -13 -20 -14 -4 0 -25 -8 -47
-18 -139 -61 -361 -61 -522 0 -49 18 -138 68 -160 90 -7 7 -23 21 -36 31 -59
46 -172 221 -181 277 -1 6 -4 16 -7 21 -21 35 -34 140 -34 260 1 119 9 181 30
232 8 18 12 33 10 33 -9 0 47 117 82 170 90 137 242 240 406 275 82 17 255 12
337 -9z"/>
<path d="M2366 4963 c-1 -1 -24 -5 -51 -8 -49 -6 -85 -11 -95 -15 -3 -1 -8 -2
-12 -1 -4 0 -24 -7 -45 -15 -21 -9 -38 -16 -38 -15 0 10 -168 -72 -215 -105
-50 -35 -167 -152 -191 -191 -11 -18 -24 -33 -27 -33 -4 0 -7 82 -7 182 l0
183 -237 3 c-187 2 -238 0 -239 -10 -5 -70 -2 -3018 4 -3019 9 -1 443 -1 460
0 10 1 13 115 12 591 0 324 2 590 5 590 3 0 16 -16 29 -36 44 -63 144 -159
216 -205 64 -41 83 -51 148 -78 41 -18 119 -41 154 -47 20 -3 45 -8 57 -11 11
-3 88 -6 170 -7 142 -2 216 7 366 48 57 16 211 91 239 117 11 11 25 19 30 19
15 0 184 170 218 220 42 62 107 187 123 235 7 22 15 45 19 50 3 6 6 15 8 20 1
6 9 37 17 70 56 232 52 471 -12 715 -64 239 -219 456 -419 587 -75 49 -197
108 -240 116 -10 2 -38 9 -63 16 -56 16 -72 19 -140 27 -52 6 -239 12 -244 7z
m104 -407 c158 -15 340 -128 440 -271 30 -43 89 -165 96 -199 35 -156 39 -327
9 -441 -8 -33 -17 -67 -19 -76 -20 -78 -111 -214 -193 -288 -49 -44 -177 -119
-217 -127 -6 -2 -42 -10 -81 -18 -96 -21 -258 -14 -348 14 -179 56 -327 184
-393 340 -8 19 -19 44 -24 55 -13 28 -38 122 -45 170 -7 44 -7 215 0 255 27
158 80 276 170 377 86 96 234 183 340 200 17 3 45 8 64 12 34 6 118 5 201 -3z"/>
</g>
</svg>
