<?xml version="1.0" encoding="UTF-8" standalone="no"?>
<svg
   width="100%"
   height="100%"
   viewBox="0 0 963 963"
   version="1.1"
   xml:space="preserve"
   style="fill-rule:evenodd;clip-rule:evenodd;"
   id="svg89"
   sodipodi:docname="podman-engine.svg"
   inkscape:version="1.1 (ce6663b3b7, 2021-05-25)"
   xmlns:inkscape="http://www.inkscape.org/namespaces/inkscape"
   xmlns:sodipodi="http://sodipodi.sourceforge.net/DTD/sodipodi-0.dtd"
   xmlns="http://www.w3.org/2000/svg"
   xmlns:svg="http://www.w3.org/2000/svg"><defs
     id="defs93" /><sodipodi:namedview
     id="namedview91"
     pagecolor="#ffffff"
     bordercolor="#666666"
     borderopacity="1.0"
     inkscape:pageshadow="2"
     inkscape:pageopacity="0.0"
     inkscape:pagecheckerboard="0"
     showgrid="false"
     inkscape:zoom="0.87642783"
     inkscape:cx="480.9295"
     inkscape:cy="482.0705"
     inkscape:window-width="1864"
     inkscape:window-height="1016"
     inkscape:window-x="56"
     inkscape:window-y="27"
     inkscape:window-maximized="1"
     inkscape:current-layer="g10985" /><g
     id="layer1"><g
       id="g86"><g
         id="g10987"><g
           id="g10985"><path
             id="path10821"
             d="M514.313,464.235l200.347,-0"
             style="fill:none;stroke:#3c6eb4;stroke-width:16.67px;" /><path
             id="path10823"
             d="M547.646,505.901l200.348,0"
             style="fill:none;stroke:#3c6eb4;stroke-width:16.67px;" /><g
             id="g10875"><path
               id="path10825"
               d="M690.773,552.675c-41.807,-67.838 -32.444,-133.272 -52.213,-226.762c-10.848,-57.741 -47.477,-105.403 -95.156,-122.853c-39.335,-13.733 -121.029,-13.775 -155.658,-0c-47.679,17.45 -84.307,65.112 -95.154,122.853c-19.769,93.49 -10.407,158.924 -52.214,226.762"
               style="fill:#ccc;stroke:#000;stroke-width:12.5px;" /><ellipse
               id="ellipse10827"
               cx="572.327"
               cy="416.632"
               rx="20.21"
               ry="21.291"
               style="fill:#e7e8e9;" /><ellipse
               id="ellipse10829"
               cx="368.103"
               cy="416.632"
               rx="20.21"
               ry="21.291"
               style="fill:#e7e8e9;" /><g
               id="g10839"><path
                 id="path10831"
                 d="M403.204,404.922l-75.106,20.141"
                 style="fill:none;stroke:#a7a9ac;stroke-width:8.33px;" /><path
                 id="path10833"
                 d="M411.713,416.632l-75.524,43.64"
                 style="fill:none;stroke:#a7a9ac;stroke-width:8.33px;" /><path
                 id="path10835"
                 d="M418.095,430.471l-76.584,76.649"
                 style="fill:none;stroke:#a7a9ac;stroke-width:8.33px;" /><path
                 id="path10837"
                 d="M421.286,448.569l-39.14,67.85"
                 style="fill:none;stroke:#a7a9ac;stroke-width:8.33px;" /></g><g
               id="g10849"><path
                 id="path10841"
                 d="M543.19,404.922l75.106,20.141"
                 style="fill:none;stroke:#a7a9ac;stroke-width:8.33px;" /><path
                 id="path10843"
                 d="M534.68,416.632l75.525,43.64"
                 style="fill:none;stroke:#a7a9ac;stroke-width:8.33px;" /><path
                 id="path10845"
                 d="M528.298,430.471l76.585,76.649"
                 style="fill:none;stroke:#a7a9ac;stroke-width:8.33px;" /><path
                 id="path10847"
                 d="M525.107,448.569l39.141,67.85"
                 style="fill:none;stroke:#a7a9ac;stroke-width:8.33px;" /></g><ellipse
               id="ellipse10851"
               cx="472.342"
               cy="401.728"
               rx="64.884"
               ry="61.745"
               style="fill:#fff;stroke:#60605b;stroke-width:12.5px;stroke-linecap:square;" /><ellipse
               id="ellipse10853"
               cx="571.672"
               cy="348.956"
               rx="31.246"
               ry="32.066"
               style="stroke:#892ca0;stroke-width:12.5px;stroke-linecap:square;" /><path
               id="path10855"
               d="M599.688,281.825c-6.243,-8.126 -16.179,-13.291 -26.412,-13.729c-9.661,-0.414 -19.43,3.369 -26.297,10.182"
               style="fill:none;fill-rule:nonzero;stroke:#000;stroke-width:12.5px;stroke-linecap:square;" /><g
               id="g10863"><g
                 id="g10861"><path
                   id="path10857"
                   d="M472.343,391.082l1.597,31.937c-0,0 25.528,22.888 40.419,-0.532c0,-0 -1.597,-13.307 -2.66,-17.565"
                   style="fill:none;stroke:#000;stroke-width:12.5px;" /><path
                   id="path10859"
                   d="M472.047,391.082l-1.597,31.937c-0,0 -25.528,22.888 -40.42,-0.532c0,-0 1.597,-13.307 2.66,-17.565"
                   style="fill:none;stroke:#000;stroke-width:12.5px;" /></g></g><path
               id="path10865"
               d="M500.032,390.591c-2.177,-5.637 -2.177,-16.913 -8.704,-16.913c-6.529,0 -12.564,-4.228 -18.985,-4.228c-6.422,0 -12.457,4.228 -18.986,4.228c-6.528,0 -6.528,11.276 -8.704,16.913c-2.177,5.638 27.69,23.96 27.69,23.96c-0,0 29.865,-18.322 27.689,-23.96Z"
               style="fill:#808080;fill-rule:nonzero;stroke:#000;stroke-width:12.5px;stroke-linecap:square;" /><ellipse
               id="ellipse10867"
               cx="369.429"
               cy="348.956"
               rx="31.246"
               ry="32.066"
               style="stroke:#892ca0;stroke-width:12.5px;stroke-linecap:square;" /><ellipse
               id="ellipse10869"
               cx="359.001"
               cy="339.933"
               rx="15.365"
               ry="15.977"
               style="fill:#fff;" /><path
               id="path10871"
               d="M341.413,281.825c6.243,-8.126 16.179,-13.291 26.412,-13.729c9.661,-0.414 19.429,3.368 26.297,10.182"
               style="fill:none;fill-rule:nonzero;stroke:#000;stroke-width:12.5px;stroke-linecap:square;" /><ellipse
               id="ellipse10873"
               cx="561.155"
               cy="339.933"
               rx="15.365"
               ry="15.977"
               style="fill:#fff;" /></g><path
             id="path10877"
             d="M265.945,551.771l518.545,-0"
             style="fill:none;stroke:#3c6eb4;stroke-width:16.67px;" /><path
             id="path10933"
             d="M 190.945,647.437 H 503.251"
             style="fill:none;stroke:#3c6eb4;stroke-width:16.67px" /><g
             id="g10929"><path
               id="path10879"
               d="M458.157,641.404c-3.427,-23.308 -5.091,-48.663 -11.414,-78.493c-6.939,-36.848 -30.37,-67.264 -60.869,-78.4c-25.162,-8.764 -77.421,-8.791 -99.573,-0c-30.499,11.136 -53.929,41.552 -60.868,78.4c-6.323,29.83 -7.987,55.185 -11.414,78.493"
               style="fill:#ccc;stroke:#000;stroke-width:12.5px;" /><ellipse
               id="ellipse10881"
               cx="404.374"
               cy="620.804"
               rx="12.928"
               ry="13.587"
               style="fill:#e7e8e9;" /><ellipse
               id="ellipse10883"
               cx="273.735"
               cy="620.804"
               rx="12.928"
               ry="13.587"
               style="fill:#e7e8e9;" /><g
               id="g10893"><path
                 id="path10885"
                 d="M296.19,613.331l-48.044,12.853"
                 style="fill:none;stroke:#a7a9ac;stroke-width:8.33px;" /><path
                 id="path10887"
                 d="M301.633,620.804l-48.312,27.849"
                 style="fill:none;stroke:#a7a9ac;stroke-width:8.33px;" /><path
                 id="path10889"
                 d="M305.716,629.635l-48.99,48.914"
                 style="fill:none;stroke:#a7a9ac;stroke-width:8.33px;" /><path
                 id="path10891"
                 d="M307.757,641.184l-25.038,43.3"
                 style="fill:none;stroke:#a7a9ac;stroke-width:8.33px;" /></g><g
               id="g10903"><path
                 id="path10895"
                 d="M385.735,613.331l48.044,12.853"
                 style="fill:none;stroke:#a7a9ac;stroke-width:8.33px;" /><path
                 id="path10897"
                 d="M380.291,620.804l48.312,27.849"
                 style="fill:none;stroke:#a7a9ac;stroke-width:8.33px;" /><path
                 id="path10899"
                 d="M376.209,629.635l48.99,48.914"
                 style="fill:none;stroke:#a7a9ac;stroke-width:8.33px;" /><path
                 id="path10901"
                 d="M374.168,641.184l25.037,43.3"
                 style="fill:none;stroke:#a7a9ac;stroke-width:8.33px;" /></g><ellipse
               id="ellipse10905"
               cx="340.415"
               cy="611.293"
               rx="41.505"
               ry="39.403"
               style="fill:#fff;stroke:#60605b;stroke-width:12.5px;stroke-linecap:square;" /><ellipse
               id="ellipse10907"
               cx="403.955"
               cy="577.616"
               rx="19.988"
               ry="20.463"
               style="stroke:#892ca0;stroke-width:12.5px;stroke-linecap:square;" /><path
               id="path10909"
               d="M421.878,534.775c-3.999,-5.186 -10.353,-8.481 -16.896,-8.761c-6.178,-0.264 -12.425,2.149 -16.822,6.498"
               style="fill:none;fill-rule:nonzero;stroke:#000;stroke-width:12.5px;stroke-linecap:square;" /><g
               id="g10917"><g
                 id="g10915"><path
                   id="path10911"
                   d="M340.417,604.499l1.021,20.381c0,-0 16.33,14.606 25.856,-0.34c-0,0 -1.022,-8.492 -1.702,-11.209"
                   style="fill:none;stroke:#000;stroke-width:12.5px;" /><path
                   id="path10913"
                   d="M340.227,604.499l-1.021,20.381c-0,-0 -16.33,14.606 -25.856,-0.34c0,0 1.022,-8.492 1.702,-11.209"
                   style="fill:none;stroke:#000;stroke-width:12.5px;" /></g></g><path
               id="path10919"
               d="M358.129,604.186c-1.392,-3.598 -1.392,-10.794 -5.568,-10.794c-4.176,0 -8.037,-2.698 -12.144,-2.698c-4.108,0 -7.969,2.698 -12.145,2.698c-4.176,0 -4.176,7.196 -5.568,10.794c-1.392,3.597 17.713,15.29 17.713,15.29c-0,-0 19.104,-11.693 17.712,-15.29Z"
               style="fill:#808080;fill-rule:nonzero;stroke:#000;stroke-width:12.5px;stroke-linecap:square;" /><ellipse
               id="ellipse10921"
               cx="274.584"
               cy="577.616"
               rx="19.988"
               ry="20.463"
               style="stroke:#892ca0;stroke-width:12.5px;stroke-linecap:square;" /><ellipse
               id="ellipse10923"
               cx="267.913"
               cy="571.858"
               rx="9.829"
               ry="10.196"
               style="fill:#fff;" /><path
               id="path10925"
               d="M256.663,534.775c3.999,-5.186 10.352,-8.481 16.895,-8.761c6.179,-0.264 12.426,2.149 16.822,6.498"
               style="fill:none;fill-rule:nonzero;stroke:#000;stroke-width:12.5px;stroke-linecap:square;" /><ellipse
               id="ellipse10927"
               cx="398.595"
               cy="573.288"
               rx="9.829"
               ry="10.196"
               style="fill:#fff;" /></g><path
             id="path10931"
             d="M482.635,850.85l-303.909,-145.4l-75.911,-328.529l209.246,-264.261l336.839,-1.01l210.785,263.011l-73.998,328.971l-303.052,147.218Z"
             style="fill:none;fill-rule:nonzero;stroke:#892ca0;stroke-width:16.67px;stroke-linecap:round;stroke-linejoin:round;" /><path
             id="path10935"
             d="M339.313,680.901l433.104,0"
             style="fill:none;stroke:#3c6eb4;stroke-width:16.67px;" /><g
             id="g10979"><path
               id="path10937"
               d="M738.973,673.052c-3.664,-24.92 -5.443,-52.028 -12.203,-83.921c-7.419,-39.395 -32.469,-71.913 -65.078,-83.819c-26.901,-9.37 -82.772,-9.399 -106.455,-0c-32.609,11.906 -57.658,44.424 -65.077,83.819c-6.76,31.893 -8.539,59.001 -12.202,83.921"
               style="fill:#ccc;stroke:#000;stroke-width:12.5px;" /><ellipse
               id="ellipse10939"
               cx="681.473"
               cy="651.027"
               rx="13.822"
               ry="14.527"
               style="fill:#e7e8e9;" /><ellipse
               id="ellipse10941"
               cx="541.802"
               cy="651.027"
               rx="13.822"
               ry="14.527"
               style="fill:#e7e8e9;" /><g
               id="g10947"><path
                 id="path10943"
                 d="M565.809,643.037l-51.366,13.742"
                 style="fill:none;stroke:#a7a9ac;stroke-width:8.33px;" /><path
                 id="path10945"
                 d="M571.628,651.027l-51.652,29.775"
                 style="fill:none;stroke:#a7a9ac;stroke-width:8.33px;" /></g><g
               id="g10953"><path
                 id="path10949"
                 d="M661.546,643.037l51.366,13.742"
                 style="fill:none;stroke:#a7a9ac;stroke-width:8.33px;" /><path
                 id="path10951"
                 d="M655.727,651.027l51.652,29.775"
                 style="fill:none;stroke:#a7a9ac;stroke-width:8.33px;" /></g><ellipse
               id="ellipse10955"
               cx="613.093"
               cy="640.858"
               rx="44.375"
               ry="42.127"
               style="fill:#fff;stroke:#60605b;stroke-width:12.5px;stroke-linecap:square;" /><ellipse
               id="ellipse10957"
               cx="681.025"
               cy="604.853"
               rx="21.369"
               ry="21.878"
               style="stroke:#892ca0;stroke-width:12.5px;stroke-linecap:square;" /><path
               id="path10959"
               d="M700.185,559.051c-4.275,-5.545 -11.067,-9.068 -18.063,-9.367c-6.606,-0.282 -13.284,2.297 -17.985,6.947"
               style="fill:none;fill-rule:nonzero;stroke:#000;stroke-width:12.5px;stroke-linecap:square;" /><g
               id="g10967"><g
                 id="g10965"><path
                   id="path10961"
                   d="M613.093,633.595l1.092,21.79c-0,-0 17.459,15.616 27.643,-0.363c0,-0 -1.092,-9.08 -1.819,-11.985"
                   style="fill:none;stroke:#000;stroke-width:12.5px;" /><path
                   id="path10963"
                   d="M612.891,633.595l-1.093,21.79c0,-0 -17.458,15.616 -27.643,-0.363c0,-0 1.092,-9.08 1.819,-11.985"
                   style="fill:none;stroke:#000;stroke-width:12.5px;" /></g></g><path
               id="path10969"
               d="M632.03,633.26c-1.488,-3.847 -1.488,-11.54 -5.953,-11.54c-4.465,0 -8.593,-2.884 -12.984,-2.884c-4.392,-0 -8.519,2.884 -12.984,2.884c-4.465,0 -4.465,7.693 -5.953,11.54c-1.488,3.846 18.937,16.347 18.937,16.347c-0,0 20.425,-12.501 18.937,-16.347Z"
               style="fill:#808080;fill-rule:nonzero;stroke:#000;stroke-width:12.5px;stroke-linecap:square;" /><ellipse
               id="ellipse10971"
               cx="542.71"
               cy="604.853"
               rx="21.369"
               ry="21.878"
               style="stroke:#892ca0;stroke-width:12.5px;stroke-linecap:square;" /><ellipse
               id="ellipse10973"
               cx="535.578"
               cy="598.697"
               rx="10.508"
               ry="10.901"
               style="fill:#fff;" /><path
               id="path10975"
               d="M523.549,559.051c4.275,-5.545 11.068,-9.068 18.063,-9.367c6.606,-0.282 13.285,2.297 17.985,6.947"
               style="fill:none;fill-rule:nonzero;stroke:#000;stroke-width:12.5px;stroke-linecap:square;" /><ellipse
               id="ellipse10977"
               cx="676.087"
               cy="600.128"
               rx="10.508"
               ry="10.901"
               style="fill:#fff;" /></g><path
             id="path10981"
             d="M305.98,722.568l200.347,-0"
             style="fill:none;stroke:#3c6eb4;stroke-width:16.67px;" /><path
             id="path10983"
             d="M422.646,764.235l164.992,-0"
             style="fill:none;stroke:#3c6eb4;stroke-width:16.67px;" /></g></g></g></g></svg>
